<svg width="50" height="50" viewBox="0 0 50 50" fill="none" xmlns="http://www.w3.org/2000/svg">
<path d="M33.8636 0C25.2273 0.227273 18.1818 7.27273 18.1818 15.9091C18.1818 24.7727 25.2273 31.8182 34.0909 31.8182C42.9545 31.8182 50 24.7727 50 15.9091C50 7.04545 42.9545 0 33.8636 0ZM34.0909 4.54545C40.4545 4.54545 45.4545 9.54545 45.4545 15.9091C45.4545 22.2727 40.4545 27.2727 34.0909 27.2727C27.7273 27.2727 22.7273 22.2727 22.7273 15.9091C22.7273 9.54545 27.7273 4.54545 34.0909 4.54545ZM31.8182 6.81818V18.1818L40 23.1818L41.8182 20.4545L35.2273 16.5909V6.81818H31.8182ZM8.18182 26.8182C11.3636 33.1818 16.8182 38.6364 23.1818 41.8182L28.1818 36.8182C28.8636 36.1364 29.7727 35.9091 30.4545 36.3636C32.9545 37.2727 35.6818 37.7273 38.6364 37.7273C39.7727 37.7273 40.9091 38.8636 40.9091 40V47.7273C40.9091 48.8636 39.7727 50 38.6364 50C17.2727 50 0 32.7273 0 11.3636C0 10 1.13636 9.09091 2.27273 9.09091H10.2273C11.5909 9.09091 12.5 10 12.5 11.3636C12.5 14.0909 12.9545 16.8182 13.8636 19.5455C14.0909 20.4545 13.8636 21.1364 13.4091 21.8182L8.18182 26.8182Z" fill="black"/>
</svg>
